name analog
datacolumns 19
datarows 71
range 0.338 0.373
endheader
time	ground_force_vx	ground_force_vy	ground_force_vz	ground_force_px	ground_force_py	ground_force_pz	l_ground_force_vx	l_ground_force_vy	l_ground_force_vz	l_ground_force_px	l_ground_force_py	l_ground_force_pz	ground_torque_x	ground_torque_y	ground_torque_z	l_ground_torque_x	l_ground_torque_y	l_ground_torque_z
0.338	-0.0	-0.0	-0.0	-13.702733039855955	22.42520904541016	-829.972900390625	-0.0	-0.0	-0.0	-0.0	-0.0	-0.0	-0.0	-0.0	-0.0	-0.0	-0.0	-0.0
0.3385	-0.0	-0.0	-0.0	-15.36201286315918	22.852962493896484	-827.640869140625	-0.0	-0.0	-0.0	-0.0	-0.0	-0.0	-0.0	-0.0	-0.0	-0.0	-0.0	-0.0
0.339	-0.0	-0.0	-0.0	-15.897239685058594	23.26303482055664	-825.9472045898438	-0.0	-0.0	-0.0	-0.0	-0.0	-0.0	-0.0	-0.0	-0.0	-0.0	-0.0	-0.0
0.3395	-0.0	-0.0	-0.0	-15.96868133544922	23.67224502563477	-822.9795532226562	-0.0	-0.0	-0.0	-0.0	-0.0	-0.0	-0.0	-0.0	-0.0	-0.0	-0.0	-0.0
0.34	-0.0	-0.0	-0.0	-16.520299911499023	24.84969139099121	-825.6646118164062	-0.0	-0.0	-0.0	-0.0	-0.0	-0.0	-0.0	-0.0	-0.0	-0.0	-0.0	-0.0
0.3405	-0.0	-0.0	-0.0	-17.61067008972168	25.36685562133789	-830.0393676757812	-0.0	-0.0	-0.0	-0.0	-0.0	-0.0	-0.0	-0.0	-0.0	-0.0	-0.0	-0.0
0.341	-0.0	-0.0	-0.0	-17.216642379760742	25.49030876159668	-832.79833984375	-0.0	-0.0	-0.0	-0.0	-0.0	-0.0	-0.0	-0.0	-0.0	-0.0	-0.0	-0.0
0.3415	-0.0	-0.0	-0.0	-15.843085289001465	25.813798904418945	-837.6033935546875	-0.0	-0.0	-0.0	-0.0	-0.0	-0.0	-0.0	-0.0	-0.0	-0.0	-0.0	-0.0
0.342	-0.0	-0.0	-0.0	-14.506169319152832	26.134113311767575	-840.2203979492188	-0.0	-0.0	-0.0	-0.0	-0.0	-0.0	-0.0	-0.0	-0.0	-0.0	-0.0	-0.0
0.3425	-0.0	-0.0	-0.0	-14.041149139404297	25.90041732788086	-842.9710693359375	-0.0	-0.0	-0.0	-0.0	-0.0	-0.0	-0.0	-0.0	-0.0	-0.0	-0.0	-0.0
0.343	-0.0	-0.0	-0.0	-13.488300323486328	27.00322532653809	-847.6318359375	-0.0	-0.0	-0.0	-0.0	-0.0	-0.0	-0.0	-0.0	-0.0	-0.0	-0.0	-0.0
0.3435	-0.0	-0.0	-0.0	-13.755895614624023	28.056791305541992	-850.80322265625	-0.0	-0.0	-0.0	-0.0	-0.0	-0.0	-0.0	-0.0	-0.0	-0.0	-0.0	-0.0
0.34400000000000003	-0.0	-0.0	-0.0	-13.759779930114746	28.96738052368164	-854.48046875	-0.0	-0.0	-0.0	-0.0	-0.0	-0.0	-0.0	-0.0	-0.0	-0.0	-0.0	-0.0
0.34450000000000003	-0.0	-0.0	-0.0	-13.596963882446287	28.949981689453125	-854.97119140625	-0.0	-0.0	-0.0	-0.0	-0.0	-0.0	-0.0	-0.0	-0.0	-0.0	-0.0	-0.0
0.34500000000000003	-0.0	-0.0	-0.0	-12.57636260986328	29.16068649291992	-855.048583984375	-0.0	-0.0	-0.0	-0.0	-0.0	-0.0	-0.0	-0.0	-0.0	-0.0	-0.0	-0.0
0.34550000000000003	-0.0	-0.0	-0.0	-11.81047534942627	29.71508026123047	-854.6856079101562	-0.0	-0.0	-0.0	-0.0	-0.0	-0.0	-0.0	-0.0	-0.0	-0.0	-0.0	-0.0
0.34600000000000003	-0.0	-0.0	-0.0	-11.565364837646484	30.03431701660156	-851.8014526367188	-0.0	-0.0	-0.0	-0.0	-0.0	-0.0	-0.0	-0.0	-0.0	-0.0	-0.0	-0.0
0.34650000000000003	-0.0	-0.0	-0.0	-10.829030990600586	30.157793045043945	-852.45068359375	-0.0	-0.0	-0.0	-0.0	-0.0	-0.0	-0.0	-0.0	-0.0	-0.0	-0.0	-0.0
0.34700000000000003	-0.0	-0.0	-0.0	-10.400148391723633	30.517051696777344	-847.8366088867188	-0.0	-0.0	-0.0	-0.0	-0.0	-0.0	-0.0	-0.0	-0.0	-0.0	-0.0	-0.0
0.34750000000000003	-0.0	-0.0	-0.0	-9.761504173278809	29.94781494140625	-847.4955444335938	-0.0	-0.0	-0.0	-0.0	-0.0	-0.0	-0.0	-0.0	-0.0	-0.0	-0.0	-0.0
0.34800000000000003	-0.0	-0.0	-0.0	-8.68778133392334	29.646093368530277	-840.134033203125	-0.0	-0.0	-0.0	-0.0	-0.0	-0.0	-0.0	-0.0	-0.0	-0.0	-0.0	-0.0
0.34850000000000003	-0.0	-0.0	-0.0	-7.926078796386719	28.912508010864254	-835.420166015625	-0.0	-0.0	-0.0	-0.0	-0.0	-0.0	-0.0	-0.0	-0.0	-0.0	-0.0	-0.0
0.34900000000000003	-0.0	-0.0	-0.0	-6.711523532867432	28.93317413330078	-830.7469482421875	-0.0	-0.0	-0.0	-0.0	-0.0	-0.0	-0.0	-0.0	-0.0	-0.0	-0.0	-0.0
0.34950000000000003	-0.0	-0.0	-0.0	-5.870811462402344	28.41173553466797	-824.3896484375	-0.0	-0.0	-0.0	-0.0	-0.0	-0.0	-0.0	-0.0	-0.0	-0.0	-0.0	-0.0
0.35000000000000003	-0.0	-0.0	-0.0	-5.382741451263428	28.28839874267578	-819.9488525390625	-0.0	-0.0	-0.0	-0.0	-0.0	-0.0	-0.0	-0.0	-0.0	-0.0	-0.0	-0.0
0.35050000000000003	-0.0	-0.0	-0.0	-5.441841125488281	27.884897232055664	-813.3734130859375	-0.0	-0.0	-0.0	-0.0	-0.0	-0.0	-0.0	-0.0	-0.0	-0.0	-0.0	-0.0
0.35100000000000003	-0.0	-0.0	-0.0	-5.199746131896973	27.15509986877441	-806.3267211914062	-0.0	-0.0	-0.0	-0.0	-0.0	-0.0	-0.0	-0.0	-0.0	-0.0	-0.0	-0.0
0.35150000000000003	-0.0	-0.0	-0.0	-4.98329496383667	26.837156295776367	-799.97021484375	-0.0	-0.0	-0.0	-0.0	-0.0	-0.0	-0.0	-0.0	-0.0	-0.0	-0.0	-0.0
0.352	-0.0	-0.0	-0.0	-4.192893981933594	26.17051887512207	-791.5614624023438	-0.0	-0.0	-0.0	-0.0	-0.0	-0.0	-0.0	-0.0	-0.0	-0.0	-0.0	-0.0
0.3525	-0.0	-0.0	-0.0	-3.445432662963867	25.585187911987305	-785.1858520507812	-0.0	-0.0	-0.0	-0.0	-0.0	-0.0	-0.0	-0.0	-0.0	-0.0	-0.0	-0.0
0.353	-0.0	-0.0	-0.0	-2.358127355575561	23.72552299499512	-780.088134765625	-0.0	-0.0	-0.0	-0.0	-0.0	-0.0	-0.0	-0.0	-0.0	-0.0	-0.0	-0.0
0.3535	-0.0	-0.0	-0.0	-1.599215388298035	23.03948402404785	-777.482177734375	-0.0	-0.0	-0.0	-0.0	-0.0	-0.0	-0.0	-0.0	-0.0	-0.0	-0.0	-0.0
0.354	-0.0	-0.0	-0.0	0.1175296157598495	20.873289108276367	-776.8629150390625	-0.0	-0.0	-0.0	-0.0	-0.0	-0.0	-0.0	-0.0	-0.0	-0.0	-0.0	-0.0
0.3545	-0.0	-0.0	-0.0	1.5333322286605835	19.82586479187012	-774.1040649414062	-0.0	-0.0	-0.0	-0.0	-0.0	-0.0	-0.0	-0.0	-0.0	-0.0	-0.0	-0.0
0.355	-0.0	-0.0	-0.0	2.782242774963379	18.15481758117676	-775.4946899414062	-0.0	-0.0	-0.0	-0.0	-0.0	-0.0	-0.0	-0.0	-0.0	-0.0	-0.0	-0.0
0.3555	-0.0	-0.0	-0.0	4.577364921569824	16.266582489013672	-773.8833618164062	-0.0	-0.0	-0.0	-0.0	-0.0	-0.0	-0.0	-0.0	-0.0	-0.0	-0.0	-0.0
0.356	-0.0	-0.0	-0.0	6.790717601776123	14.155094146728516	-771.3684692382812	-0.0	-0.0	-0.0	-0.0	-0.0	-0.0	-0.0	-0.0	-0.0	-0.0	-0.0	-0.0
0.3565	-0.0	-0.0	-0.0	8.251104354858398	11.676082611083984	-769.6448974609375	-0.0	-0.0	-0.0	-0.0	-0.0	-0.0	-0.0	-0.0	-0.0	-0.0	-0.0	-0.0
0.357	-0.0	-0.0	-0.0	10.080787658691406	9.308959007263184	-767.1068115234375	-0.0	-0.0	-0.0	-0.0	-0.0	-0.0	-0.0	-0.0	-0.0	-0.0	-0.0	-0.0
0.3575	-0.0	-0.0	-0.0	10.939780235290527	7.03118371963501	-766.884765625	-0.0	-0.0	-0.0	-0.0	-0.0	-0.0	-0.0	-0.0	-0.0	-0.0	-0.0	-0.0
0.358	-0.0	-0.0	-0.0	12.221839904785156	4.641386032104492	-767.1591796875	-0.0	-0.0	-0.0	-0.0	-0.0	-0.0	-0.0	-0.0	-0.0	-0.0	-0.0	-0.0
0.3585	-0.0	-0.0	-0.0	12.492523193359377	2.218493938446045	-762.71142578125	-0.0	-0.0	-0.0	-0.0	-0.0	-0.0	-0.0	-0.0	-0.0	-0.0	-0.0	-0.0
0.359	-0.0	-0.0	-0.0	13.698591232299805	0.0302436798810958	-762.4882202148438	-0.0	-0.0	-0.0	-0.0	-0.0	-0.0	-0.0	-0.0	-0.0	-0.0	-0.0	-0.0
0.3595	-0.0	-0.0	-0.0	14.210233688354492	-2.293899774551392	-763.92822265625	-0.0	-0.0	-0.0	-0.0	-0.0	-0.0	-0.0	-0.0	-0.0	-0.0	-0.0	-0.0
0.36	-0.0	-0.0	-0.0	14.193655014038086	-4.629539489746094	-762.5804443359375	-0.0	-0.0	-0.0	-0.0	-0.0	-0.0	-0.0	-0.0	-0.0	-0.0	-0.0	-0.0
0.3605	-0.0	-0.0	-0.0	14.947243690490724	-7.617737770080566	-761.6502685546875	-0.0	-0.0	-0.0	-0.0	-0.0	-0.0	-0.0	-0.0	-0.0	-0.0	-0.0	-0.0
0.361	-0.0	-0.0	-0.0	14.346566200256348	-9.392481803894045	-760.7796020507812	-0.0	-0.0	-0.0	-0.0	-0.0	-0.0	-0.0	-0.0	-0.0	-0.0	-0.0	-0.0
0.3615	-0.0	-0.0	-0.0	14.00605010986328	-12.203120231628418	-758.9530029296875	-0.0	-0.0	-0.0	-0.0	-0.0	-0.0	-0.0	-0.0	-0.0	-0.0	-0.0	-0.0
0.362	-0.0	-0.0	-0.0	13.414105415344238	-16.03559112548828	-760.4295654296875	-0.0	-0.0	-0.0	-0.0	-0.0	-0.0	-0.0	-0.0	-0.0	-0.0	-0.0	-0.0
0.3625	-0.0	-0.0	-0.0	13.146400451660156	-19.300806045532227	-764.3456420898438	-0.0	-0.0	-0.0	-0.0	-0.0	-0.0	-0.0	-0.0	-0.0	-0.0	-0.0	-0.0
0.363	-0.0	-0.0	-0.0	12.716466903686523	-20.79973793029785	-766.2722778320312	-0.0	-0.0	-0.0	-0.0	-0.0	-0.0	-0.0	-0.0	-0.0	-0.0	-0.0	-0.0
0.3635	-0.0	-0.0	-0.0	11.24112319946289	-21.92607879638672	-765.8552856445312	-0.0	-0.0	-0.0	-0.0	-0.0	-0.0	-0.0	-0.0	-0.0	-0.0	-0.0	-0.0
0.364	-0.0	-0.0	-0.0	8.337400436401367	-23.11700439453125	-763.9620971679688	-0.0	-0.0	-0.0	-0.0	-0.0	-0.0	-0.0	-0.0	-0.0	-0.0	-0.0	-0.0
0.3645	-0.0	-0.0	-0.0	5.823522567749023	-25.3291130065918	-760.0778198242188	-0.0	-0.0	-0.0	-0.0	-0.0	-0.0	-0.0	-0.0	-0.0	-0.0	-0.0	-0.0
0.365	-0.0	-0.0	-0.0	4.7442240715026855	-25.587610244750977	-757.8889770507812	-0.0	-0.0	-0.0	-0.0	-0.0	-0.0	-0.0	-0.0	-0.0	-0.0	-0.0	-0.0
0.3655	-0.0	-0.0	-0.0	3.982411623001098	-26.172306060791016	-760.7854614257812	-0.0	-0.0	-0.0	-0.0	-0.0	-0.0	-0.0	-0.0	-0.0	-0.0	-0.0	-0.0
0.366	-0.0	-0.0	-0.0	3.342016696929932	-26.41455841064453	-757.2810668945312	-0.0	-0.0	-0.0	-0.0	-0.0	-0.0	-0.0	-0.0	-0.0	-0.0	-0.0	-0.0
0.3665	-0.0	-0.0	-0.0	3.3167574405670166	-26.755075454711918	-757.6713256835938	-0.0	-0.0	-0.0	-0.0	-0.0	-0.0	-0.0	-0.0	-0.0	-0.0	-0.0	-0.0
0.367	-0.0	-0.0	-0.0	2.392751693725586	-27.67180061340332	-756.9024047851562	-0.0	-0.0	-0.0	-0.0	-0.0	-0.0	-0.0	-0.0	-0.0	-0.0	-0.0	-0.0
0.3675	-0.0	-0.0	-0.0	1.599625587463379	-28.585254669189453	-753.2942504882812	-0.0	-0.0	-0.0	-0.0	-0.0	-0.0	-0.0	-0.0	-0.0	-0.0	-0.0	-0.0
0.368	-0.0	-0.0	-0.0	0.5095469951629639	-29.365453720092773	-751.98291015625	-0.0	-0.0	-0.0	-0.0	-0.0	-0.0	-0.0	-0.0	-0.0	-0.0	-0.0	-0.0
0.3685	-0.0	-0.0	-0.0	-0.1942581981420517	-29.953622817993164	-751.2764282226562	-0.0	-0.0	-0.0	-0.0	-0.0	-0.0	-0.0	-0.0	-0.0	-0.0	-0.0	-0.0
0.369	-0.0	-0.0	-0.0	-0.3094398081302643	-30.56153106689453	-754.392333984375	-0.0	-0.0	-0.0	-0.0	-0.0	-0.0	-0.0	-0.0	-0.0	-0.0	-0.0	-0.0
0.3695	-0.0	-0.0	-0.0	-0.1888004392385482	-30.886375427246094	-752.2733154296875	-0.0	-0.0	-0.0	-0.0	-0.0	-0.0	-0.0	-0.0	-0.0	-0.0	-0.0	-0.0
0.37	-0.0	-0.0	-0.0	0.1836425811052322	-32.0502815246582	-752.2733154296875	-0.0	-0.0	-0.0	-0.0	-0.0	-0.0	-0.0	-0.0	-0.0	-0.0	-0.0	-0.0
0.3705	-0.0	-0.0	-0.0	0.8921051025390625	-31.55216217041016	-749.6766967773438	-0.0	-0.0	-0.0	-0.0	-0.0	-0.0	-0.0	-0.0	-0.0	-0.0	-0.0	-0.0
0.371	-0.0	-0.0	-0.0	0.9077709317207336	-31.839984893798828	-747.9111328125	-0.0	-0.0	-0.0	-0.0	-0.0	-0.0	-0.0	-0.0	-0.0	-0.0	-0.0	-0.0
0.3715	-0.0	-0.0	-0.0	1.8577804565429688	-31.017379760742188	-745.1477661132812	-0.0	-0.0	-0.0	-0.0	-0.0	-0.0	-0.0	-0.0	-0.0	-0.0	-0.0	-0.0
0.372	-0.0	-0.0	-0.0	2.99517035484314	-30.431419372558597	-745.456787109375	-0.0	-0.0	-0.0	-0.0	-0.0	-0.0	-0.0	-0.0	-0.0	-0.0	-0.0	-0.0
0.3725	-0.0	-0.0	-0.0	4.697022438049316	-29.339454650878903	-745.3329467773438	-0.0	-0.0	-0.0	-0.0	-0.0	-0.0	-0.0	-0.0	-0.0	-0.0	-0.0	-0.0
0.373	-0.0	-0.0	-0.0	6.873250484466553	-29.560237884521484	-744.1046142578125	-0.0	-0.0	-0.0	-0.0	-0.0	-0.0	-0.0	-0.0	-0.0	-0.0	-0.0	-0.0
